<?xml version="1.0" standalone="no"?>
<!DOCTYPE svg PUBLIC "-//W3C//DTD SVG 20010904//EN"
 "http://www.w3.org/TR/2001/REC-SVG-20010904/DTD/svg10.dtd">
<svg version="1.0" xmlns="http://www.w3.org/2000/svg"
 width="256.000000pt" height="256.000000pt" viewBox="0 0 256.000000 256.000000"
 preserveAspectRatio="xMidYMid meet">
<metadata>
Created by potrace 1.11, written by Peter Selinger 2001-2013
</metadata>
<g transform="translate(0.000000,256.000000) scale(0.100000,-0.100000)"
fill="#000000" stroke="none">
<path d="M471 2392 c-36 -8 -71 -18 -78 -24 -7 -5 -18 -6 -24 -2 -7 4 -9 3 -5
-4 3 -6 -3 -14 -15 -17 -33 -11 -125 -108 -146 -154 -11 -23 -21 -39 -24 -37
-3 3 -5 -3 -6 -12 0 -9 -4 -37 -8 -62 -4 -25 -8 -74 -9 -110 0 -36 -5 -68 -11
-72 -6 -5 -5 -8 3 -8 6 0 12 -7 12 -16 0 -9 -5 -12 -12 -8 -10 6 -10 4 0 -8
10 -13 10 -17 0 -21 -10 -4 -10 -6 0 -6 6 -1 12 -8 12 -17 0 -9 -5 -12 -12 -8
-10 6 -10 4 0 -8 10 -13 10 -17 0 -21 -10 -4 -10 -6 0 -6 6 -1 12 -8 12 -17 0
-8 -5 -12 -11 -8 -8 5 -8 1 0 -14 13 -24 15 -55 3 -48 -4 2 -8 -4 -8 -14 0
-10 3 -17 6 -15 11 7 7 -290 -5 -297 -7 -5 -7 -8 1 -8 14 0 14 -110 0 -110 -8
0 -8 -2 0 -8 14 -10 14 -344 0 -354 -8 -5 -8 -8 0 -8 14 0 14 -102 0 -112 -8
-5 -8 -8 0 -8 8 0 11 -37 10 -120 -2 -80 1 -120 8 -120 7 0 8 -3 1 -8 -14 -10
-16 -44 -2 -35 6 4 8 0 4 -10 -3 -10 -2 -17 3 -17 5 0 12 -16 16 -35 3 -19 10
-35 15 -35 5 0 9 -7 9 -16 0 -8 7 -22 15 -31 8 -8 13 -19 9 -24 -3 -5 -2 -9 3
-8 21 4 33 -2 33 -17 0 -9 5 -12 13 -8 9 6 9 4 -1 -8 -10 -13 -10 -18 -1 -24
8 -4 9 -3 5 4 -4 7 -2 12 3 12 6 0 11 -5 11 -10 0 -6 3 -9 8 -8 15 5 52 -23
53 -40 0 -14 2 -14 9 3 6 14 9 16 10 5 2 -8 2 -19 1 -24 -1 -5 4 -4 12 2 10 9
16 9 25 0 7 -7 12 -9 12 -5 0 4 16 1 35 -7 26 -11 35 -12 35 -3 0 8 4 7 9 -3
6 -8 7 -18 5 -22 -3 -4 0 -8 6 -8 7 0 9 9 5 23 -3 12 -3 17 2 12 4 -6 27 -10
49 -10 33 1 41 -2 37 -15 -4 -12 -2 -11 10 2 11 14 16 15 27 5 7 -7 10 -7 7
-2 -7 13 73 13 92 1 8 -5 12 -5 8 0 -3 5 60 9 151 9 127 0 160 -3 170 -15 12
-13 13 -13 9 0 -4 13 6 16 62 15 36 0 72 -4 80 -9 8 -5 12 -5 8 0 -3 5 60 9
151 9 127 0 160 -3 170 -15 12 -13 13 -13 9 0 -4 13 6 16 62 15 36 0 72 -4 80
-9 8 -5 12 -5 9 0 -4 5 42 9 107 10 71 0 112 -3 108 -9 -4 -6 -1 -7 8 -1 17
10 89 13 83 3 -8 -14 18 -21 29 -10 9 9 8 11 -6 5 -13 -5 -16 -2 -11 10 6 17
24 17 37 1 4 -6 11 -3 17 7 6 10 17 15 25 11 9 -3 23 1 32 8 15 12 16 12 10
-4 -4 -11 -3 -16 3 -12 6 3 10 12 10 18 0 7 20 21 43 31 42 20 87 59 87 77 0
8 13 13 31 11 4 -1 6 8 5 20 0 12 5 23 13 26 9 3 11 0 6 -8 -5 -9 -4 -11 4 -6
8 5 9 12 2 19 -11 14 11 51 23 39 4 -4 6 0 4 8 -1 8 -7 18 -13 22 -6 5 -5 8 3
8 6 0 12 7 12 15 0 8 6 15 13 15 8 0 8 3 2 8 -6 4 -9 18 -8 32 1 14 3 37 4 52
1 17 6 25 13 21 8 -5 8 -3 0 8 -14 18 -14 52 0 61 7 5 7 8 1 8 -15 0 -17 50
-3 68 8 10 9 13 2 9 -15 -9 -14 65 0 75 8 5 8 8 1 8 -6 0 -12 31 -13 75 -1 48
2 74 8 70 6 -3 10 -1 10 4 0 6 -4 11 -8 11 -13 0 -13 52 0 68 8 10 9 13 2 9
-15 -9 -14 65 0 75 8 5 8 8 1 8 -6 0 -12 31 -13 75 -1 44 2 74 8 70 5 -3 12
-1 15 5 4 6 1 9 -6 8 -10 -2 -14 21 -15 94 -1 62 2 96 8 92 6 -4 5 3 -2 15
-13 24 -10 62 5 73 6 5 5 8 -2 8 -8 0 -13 14 -13 36 0 25 3 33 13 28 9 -6 9
-4 -1 8 -10 13 -10 17 0 21 10 4 10 6 1 6 -7 1 -13 8 -13 17 0 8 5 12 11 8 8
-5 8 -1 0 14 -14 26 -14 55 -1 47 6 -3 10 -1 10 4 0 6 -4 11 -10 11 -5 0 -10
7 -10 16 0 9 5 12 13 8 8 -5 8 -2 -2 9 -11 14 -11 17 0 17 9 0 10 3 4 8 -14 9
-14 45 0 54 7 5 7 8 0 8 -6 0 -12 16 -13 36 -2 20 1 33 5 31 5 -3 9 3 9 13 0
10 -4 16 -8 14 -4 -2 -6 14 -5 36 2 22 -1 40 -5 40 -11 0 -6 23 7 32 6 5 5 8
-2 8 -7 0 -13 5 -13 10 0 18 -43 104 -67 133 -13 16 -20 34 -17 39 4 6 3 8 -3
5 -5 -3 -22 5 -38 19 -15 13 -32 24 -37 24 -5 0 -6 6 -2 13 4 6 4 9 -1 5 -4
-4 -22 1 -39 11 -29 18 -48 23 -121 37 -16 3 -367 6 -779 7 -589 2 -763 -1
-815 -11z"/>
<path d="M433 155 c0 -8 4 -12 9 -9 5 3 6 10 3 15 -9 13 -12 11 -12 -6z"/>
<path d="M460 146 c0 -2 7 -7 16 -10 8 -3 12 -2 9 4 -6 10 -25 14 -25 6z"/>
<path d="M826 142 c-3 -5 1 -9 9 -9 8 0 12 4 9 9 -3 4 -7 8 -9 8 -2 0 -6 -4
-9 -8z"/>
<path d="M866 142 c-3 -5 1 -9 9 -9 8 0 12 4 9 9 -3 4 -7 8 -9 8 -2 0 -6 -4
-9 -8z"/>
<path d="M906 142 c-3 -5 1 -9 9 -9 8 0 12 4 9 9 -3 4 -7 8 -9 8 -2 0 -6 -4
-9 -8z"/>
<path d="M946 142 c-3 -5 1 -9 9 -9 8 0 15 4 15 9 0 4 -4 8 -9 8 -6 0 -12 -4
-15 -8z"/>
<path d="M1306 142 c-3 -5 1 -9 9 -9 8 0 12 4 9 9 -3 4 -7 8 -9 8 -2 0 -6 -4
-9 -8z"/>
<path d="M1346 142 c-3 -5 1 -9 9 -9 8 0 12 4 9 9 -3 4 -7 8 -9 8 -2 0 -6 -4
-9 -8z"/>
<path d="M1386 142 c-3 -5 1 -9 9 -9 8 0 12 4 9 9 -3 4 -7 8 -9 8 -2 0 -6 -4
-9 -8z"/>
<path d="M1426 142 c-3 -5 1 -9 9 -9 8 0 15 4 15 9 0 4 -4 8 -9 8 -6 0 -12 -4
-15 -8z"/>
<path d="M1786 142 c-3 -5 1 -9 9 -9 8 0 12 4 9 9 -3 4 -7 8 -9 8 -2 0 -6 -4
-9 -8z"/>
<path d="M1826 142 c-3 -5 1 -9 9 -9 8 0 12 4 9 9 -3 4 -7 8 -9 8 -2 0 -6 -4
-9 -8z"/>
<path d="M1866 142 c-3 -5 1 -9 9 -9 8 0 12 4 9 9 -3 4 -7 8 -9 8 -2 0 -6 -4
-9 -8z"/>
<path d="M1507 119 c7 -7 15 -10 18 -7 3 3 -2 9 -12 12 -14 6 -15 5 -6 -5z"/>
</g>
</svg>
